<?xml version="1.0" encoding="UTF-8" standalone="no"?>
<!DOCTYPE svg PUBLIC "-//W3C//DTD SVG 1.1//EN" "http://www.w3.org/Graphics/SVG/1.1/DTD/svg11.dtd">
<svg xmlns="http://www.w3.org/2000/svg" version="1.1" viewBox="0.00 0.00 1280.00 1021.00">
<path fill="#d5b983" d="
  M 894.27 291.21
  C 910.54 269.72 940.04 262.25 965.38 267.62
  C 987.28 272.26 1006.78 286.06 1019.71 304.25
  C 1056.88 356.50 1042.17 432.22 1017.37 485.78
  Q 1017.15 486.26 1017.64 486.45
  C 1031.04 491.90 1033.22 507.81 1023.76 517.95
  C 1023.24 518.51 1021.97 519.17 1021.32 519.91
  Q 1020.96 520.32 1021.18 520.81
  C 1044.11 572.16 1053.27 630.66 1034.18 685.00
  C 1021.69 720.54 995.33 747.05 959.71 759.51
  Q 930.80 769.63 900.00 770.52
  Q 899.45 770.53 899.67 771.04
  C 920.60 818.15 890.74 866.86 846.58 884.95
  C 816.33 897.35 783.99 897.52 752.27 891.56
  Q 718.17 885.16 686.68 870.66
  Q 686.19 870.43 685.98 870.92
  C 680.38 883.57 664.89 886.94 654.86 877.43
  C 654.12 876.73 653.33 875.50 652.50 874.55
  Q 652.12 874.12 651.60 874.36
  C 614.79 890.92 574.12 900.59 533.76 896.97
  Q 507.54 894.63 485.82 886.63
  C 427.32 865.10 404.99 813.68 401.84 755.30
  Q 401.81 754.69 401.45 755.19
  C 384.62 778.56 351.44 785.02 325.20 777.72
  C 299.86 770.68 279.06 751.51 267.46 728.01
  C 254.66 702.09 251.47 673.29 254.72 644.78
  Q 259.72 600.92 278.44 560.74
  A 0.31 0.31 0.0 0 0 278.28 560.32
  C 263.82 554.30 261.87 535.80 274.48 526.65
  Q 274.89 526.35 274.68 525.89
  Q 258.70 490.39 253.50 455.75
  C 244.45 395.58 260.61 322.40 320.66 293.75
  C 325.00 291.68 329.22 289.52 333.74 287.92
  Q 343.02 284.65 346.01 283.74
  Q 367.89 277.06 395.53 276.10
  Q 396.14 276.08 395.93 275.51
  Q 394.64 272.06 393.50 268.67
  C 380.78 230.98 398.73 192.59 430.77 171.55
  C 458.36 153.44 492.71 148.57 524.92 152.27
  Q 568.84 157.31 609.21 176.02
  A 0.39 0.39 0.0 0 0 609.73 175.81
  C 614.77 162.98 630.57 159.89 640.65 168.99
  C 641.49 169.75 642.39 170.97 643.26 172.00
  Q 643.61 172.42 644.11 172.20
  Q 670.64 160.33 698.99 153.94
  Q 747.40 143.03 795.49 155.24
  C 827.62 163.40 855.17 182.03 872.23 210.69
  C 886.40 234.50 892.45 263.75 893.91 291.10
  Q 893.94 291.65 894.27 291.21
  Z
  M 968.33 488.83
  Q 955.69 475.75 948.66 459.83
  C 939.92 440.02 942.45 417.85 961.76 405.66
  C 965.84 403.08 972.05 402.77 976.50 402.73
  C 1002.57 402.50 1015.93 423.17 1017.12 447.01
  Q 1017.13 447.23 1017.34 447.30
  Q 1017.55 447.37 1017.58 447.18
  C 1021.13 423.70 1023.10 400.14 1022.41 376.38
  C 1021.81 355.93 1018.67 334.31 1008.59 316.42
  C 989.04 281.71 947.04 265.62 911.11 287.16
  Q 901.42 292.97 897.78 301.00
  C 894.01 309.31 892.80 321.10 902.15 325.65
  C 908.44 328.71 916.29 327.41 921.75 323.04
  C 928.41 317.72 931.51 309.23 932.01 300.82
  A 0.73 0.73 0.0 0 1 932.76 300.13
  L 933.05 300.14
  Q 933.94 300.16 933.98 301.05
  C 934.68 315.26 926.66 329.90 911.81 331.99
  C 896.70 334.12 887.57 323.79 888.34 309.22
  Q 888.67 303.09 890.92 297.25
  Q 891.39 296.04 891.09 293.75
  Q 888.17 271.30 881.45 251.03
  C 875.91 234.33 866.83 217.60 856.42 205.83
  C 826.26 171.72 782.92 164.24 739.49 168.20
  Q 691.46 172.59 647.13 182.98
  Q 646.55 183.11 646.51 183.71
  Q 646.06 190.31 641.82 195.32
  Q 641.45 195.75 641.84 196.16
  Q 657.74 212.90 676.77 225.99
  C 692.56 236.84 721.13 250.32 736.50 230.79
  C 745.82 218.95 741.42 203.03 726.37 198.85
  C 713.68 195.33 698.89 196.05 685.92 197.37
  Q 683.14 197.66 685.78 196.74
  C 703.81 190.47 738.58 183.61 748.99 206.77
  C 754.62 219.29 750.64 234.09 740.37 243.12
  C 719.26 261.69 688.55 248.09 669.81 232.72
  Q 651.85 218.00 638.59 198.91
  Q 638.28 198.47 637.83 198.76
  C 624.69 206.96 609.84 198.42 608.44 183.31
  Q 608.39 182.81 607.89 182.79
  C 586.18 182.19 541.28 182.75 537.82 212.01
  C 537.27 216.64 536.77 223.26 539.55 227.31
  C 557.17 253.04 592.19 235.13 611.89 224.78
  Q 613.12 224.13 612.12 225.10
  C 594.79 241.92 564.66 258.67 540.85 243.65
  Q 533.60 239.07 529.24 231.91
  Q 527.39 228.88 526.76 224.69
  C 522.39 195.87 541.11 178.70 568.20 176.26
  Q 571.42 175.96 568.23 175.46
  C 544.47 171.72 519.91 169.99 495.81 171.07
  C 462.44 172.56 430.70 181.73 411.74 211.27
  C 396.92 234.38 396.81 262.45 412.66 285.16
  Q 419.07 294.34 428.23 297.10
  Q 435.30 299.23 440.26 298.03
  C 449.94 295.70 452.72 285.26 449.40 276.80
  C 445.46 266.76 434.36 261.66 423.99 261.45
  Q 423.76 261.44 423.76 261.21
  L 423.76 259.52
  Q 423.76 259.30 423.99 259.29
  Q 434.14 258.89 442.25 263.25
  C 463.74 274.80 459.30 307.58 431.17 304.90
  C 418.17 303.66 407.26 295.02 400.65 283.87
  Q 399.21 281.44 397.70 279.13
  Q 397.42 278.69 396.89 278.75
  C 370.22 282.02 343.82 289.51 321.01 304.07
  C 277.49 331.85 266.15 380.48 270.47 429.01
  Q 274.82 477.87 285.37 522.87
  Q 285.50 523.42 286.06 523.46
  Q 292.71 523.91 297.75 528.18
  Q 298.15 528.51 298.53 528.15
  Q 318.11 509.60 331.70 488.20
  C 341.44 472.87 351.89 443.37 330.51 431.64
  Q 323.86 428.00 317.02 428.83
  C 294.31 431.61 298.52 469.62 299.80 484.68
  A 0.21 0.21 0.0 0 1 299.39 484.77
  C 291.86 464.02 284.90 421.36 318.98 418.55
  C 335.49 417.18 350.38 429.57 353.69 445.57
  Q 355.03 452.09 353.94 460.45
  C 350.19 489.22 324.37 515.38 301.39 531.26
  A 0.59 0.59 0.0 0 0 301.21 532.04
  C 308.76 545.27 301.19 560.25 285.86 561.61
  Q 285.37 561.65 285.35 562.14
  Q 284.53 579.93 287.43 597.47
  C 290.89 618.39 300.20 634.95 324.64 632.24
  Q 327.59 631.91 329.98 630.23
  C 354.69 612.90 338.37 579.30 327.65 559.03
  Q 326.09 556.09 328.32 558.57
  C 346.76 579.17 365.30 613.88 338.80 637.31
  C 332.57 642.81 327.52 643.86 319.51 643.85
  C 292.92 643.80 280.60 624.33 278.46 599.98
  Q 278.38 599.02 278.22 599.97
  Q 272.66 633.02 273.11 666.99
  Q 273.39 688.49 278.40 708.35
  C 285.68 737.24 307.67 761.62 337.11 767.91
  C 355.63 771.86 375.89 767.24 390.56 755.08
  C 398.56 748.44 406.18 730.53 396.02 722.44
  C 388.01 716.06 376.39 719.76 370.33 727.09
  Q 364.13 734.58 363.80 745.95
  Q 363.79 746.23 363.51 746.23
  L 362.03 746.24
  Q 361.81 746.24 361.80 746.03
  C 360.92 731.73 368.68 717.09 383.55 714.64
  Q 389.64 713.64 394.79 715.48
  C 408.84 720.48 409.36 736.63 405.04 748.37
  Q 404.30 750.36 404.53 752.24
  C 407.82 779.45 415.52 805.87 429.69 827.81
  C 457.71 871.22 505.55 882.82 554.51 878.61
  Q 602.17 874.51 648.72 863.54
  Q 649.17 863.43 649.20 862.97
  Q 649.66 856.29 653.92 851.18
  Q 654.27 850.76 653.89 850.36
  Q 637.65 833.34 618.26 820.04
  C 602.82 809.45 574.02 796.65 559.21 815.70
  Q 553.89 822.54 554.61 831.23
  C 556.52 854.18 593.87 850.77 608.73 849.29
  Q 612.08 848.95 608.92 850.10
  C 587.62 857.87 545.63 862.99 544.17 828.51
  C 543.46 811.87 557.10 797.53 572.90 795.03
  C 592.62 791.91 613.24 803.00 627.85 815.42
  Q 644.60 829.66 657.18 847.71
  Q 657.48 848.15 657.92 847.87
  C 670.83 839.77 686.21 848.16 687.27 863.15
  Q 687.30 863.64 687.78 863.66
  Q 706.26 864.47 724.47 861.34
  C 744.73 857.86 760.98 847.88 757.98 824.31
  Q 757.59 821.17 755.78 818.65
  C 737.96 793.79 704.31 811.46 683.72 821.72
  Q 682.86 822.15 683.55 821.49
  C 704.78 801.07 744.73 781.94 766.35 814.61
  Q 768.22 817.45 768.40 818.36
  Q 770.13 827.57 769.45 834.75
  C 767.25 858.02 746.54 869.31 725.30 870.46
  Q 725.25 870.46 725.26 870.52
  Q 725.26 870.56 725.26 870.61
  Q 725.25 870.77 725.39 870.79
  Q 751.91 875.03 778.75 875.71
  C 797.10 876.18 815.45 875.20 833.47 870.70
  C 860.87 863.87 885.20 843.87 892.70 816.01
  Q 899.80 789.69 886.11 765.68
  Q 880.91 756.57 873.36 752.15
  C 866.12 747.92 854.16 745.64 848.32 752.81
  C 842.59 759.84 844.72 770.28 850.73 776.52
  C 856.29 782.31 863.69 784.74 871.53 785.24
  Q 872.00 785.27 872.00 785.75
  L 871.99 786.76
  Q 871.98 787.21 871.53 787.23
  C 857.72 787.87 843.50 780.62 840.57 766.44
  C 838.78 757.74 841.63 748.69 849.55 744.29
  C 857.68 739.78 870.24 741.19 878.28 745.92
  C 887.52 751.35 892.56 758.35 897.93 767.37
  Q 898.18 767.79 898.66 767.73
  C 925.81 764.60 951.32 757.21 973.53 743.30
  C 1005.62 723.18 1022.40 690.23 1025.51 653.00
  Q 1026.72 638.56 1025.95 626.75
  Q 1022.60 575.65 1010.23 523.50
  Q 1010.13 523.05 1009.67 523.04
  Q 1002.94 522.77 997.93 518.35
  Q 997.54 518.00 997.16 518.36
  Q 979.51 535.31 965.92 555.63
  C 957.39 568.38 947.36 590.40 955.80 605.60
  C 963.64 619.72 985.86 623.74 993.03 606.74
  C 998.73 593.22 997.13 576.30 995.98 562.11
  Q 995.83 560.28 996.45 562.01
  C 1001.86 577.10 1006.85 601.87 997.25 616.50
  C 987.31 631.67 965.29 631.24 952.82 619.68
  Q 940.19 607.99 941.48 590.13
  C 943.73 559.02 970.14 532.11 994.45 515.22
  Q 994.90 514.91 994.61 514.43
  C 986.59 501.32 994.79 486.33 1009.90 485.04
  Q 1010.40 485.00 1010.42 484.50
  C 1011.20 463.03 1010.79 415.79 979.24 414.26
  Q 974.87 414.04 971.29 414.34
  C 967.40 414.66 965.01 416.55 962.33 419.11
  C 945.17 435.44 954.73 461.30 963.82 478.97
  Q 966.28 483.78 968.49 488.72
  Q 968.72 489.24 968.33 488.83
  Z"
/>
<path fill="#0b2b4f" d="
  M 530.68 442.75
  C 524.68 472.73 527.98 501.34 544.12 527.11
  C 556.09 546.22 574.20 559.44 596.53 567.13
  C 622.95 576.23 653.69 582.41 681.86 579.55
  Q 682.09 579.53 682.13 579.75
  L 682.43 581.29
  Q 682.48 581.59 682.19 581.65
  C 662.13 585.74 641.97 584.38 621.82 581.61
  C 581.08 576.00 546.39 561.53 525.74 523.48
  C 513.16 500.28 506.99 472.67 510.42 446.28
  Q 511.67 436.64 513.61 427.11
  Q 513.71 426.61 513.43 426.18
  C 499.78 405.57 503.14 378.85 521.57 362.32
  C 543.20 342.93 577.79 347.40 594.10 371.20
  C 615.94 403.08 593.50 447.72 554.32 447.70
  Q 545.73 447.70 537.43 444.67
  Q 534.37 443.56 531.30 442.41
  Q 530.79 442.22 530.68 442.75
  Z"
/>
<path fill="#0b2b4f" d="
  M 713.10 656.71
  Q 698.99 619.41 684.37 582.31
  Q 682.89 578.54 681.44 574.76
  Q 681.30 574.39 681.39 574.03
  Q 681.51 573.59 681.35 573.16
  L 639.81 462.39
  Q 639.45 461.43 639.11 462.40
  L 604.31 560.49
  Q 604.02 561.31 603.18 561.10
  L 598.15 559.85
  Q 597.22 559.61 597.55 558.71
  L 652.51 405.62
  Q 652.73 405.00 653.38 405.00
  L 657.70 405.00
  Q 658.22 405.00 658.41 405.49
  L 754.04 656.96
  A 0.46 0.45 -10.0 0 0 754.47 657.25
  L 786.25 657.25
  Q 786.50 657.25 786.50 657.50
  L 786.50 663.50
  A 0.25 0.25 0.0 0 1 786.25 663.75
  L 675.50 663.75
  A 0.25 0.25 0.0 0 1 675.25 663.50
  L 675.26 657.50
  Q 675.26 657.25 675.50 657.25
  L 712.73 657.25
  Q 713.31 657.25 713.10 656.71
  Z"
/>
<path fill="#0b2b4f" d="
  M 575.37 649.29
  C 578.50 660.32 604.20 656.94 612.28 657.28
  Q 612.50 657.29 612.50 657.50
  L 612.50 663.50
  A 0.25 0.25 0.0 0 1 612.25 663.75
  L 532.50 663.75
  Q 532.00 663.75 532.00 663.25
  L 532.01 657.72
  Q 532.01 657.18 532.55 657.20
  Q 542.00 657.54 551.74 656.44
  C 562.97 655.18 566.85 644.03 570.30 634.50
  Q 579.85 608.15 589.23 581.82
  Q 589.31 581.59 589.54 581.69
  L 595.57 584.15
  Q 595.87 584.27 595.76 584.57
  Q 582.85 620.04 579.33 630.00
  C 577.79 634.38 574.06 644.66 575.37 649.29
  Z"
/>
</svg>
