<?xml version="1.0" encoding="UTF-8" standalone="no"?>
<!DOCTYPE svg PUBLIC "-//W3C//DTD SVG 1.1//EN" "http://www.w3.org/Graphics/SVG/1.1/DTD/svg11.dtd">
<svg xmlns="http://www.w3.org/2000/svg" version="1.1" viewBox="0.00 0.00 1280.00 1021.00">
<path fill="#d5b983" d="
  M 894.39 291.25
  Q 902.84 279.39 917.76 272.72
  C 955.42 255.88 996.65 271.96 1019.71 304.24
  C 1038.64 330.75 1044.55 365.59 1041.45 397.46
  Q 1036.99 443.38 1017.38 485.71
  Q 1017.16 486.17 1017.63 486.37
  Q 1024.38 489.30 1027.15 494.72
  Q 1033.38 506.92 1024.08 517.68
  C 1023.39 518.49 1021.93 519.10 1021.29 519.98
  A 0.90 0.88 -40.0 0 0 1021.20 520.88
  Q 1033.67 548.78 1040.05 578.74
  Q 1047.06 611.68 1043.05 645.86
  Q 1040.65 666.35 1034.31 684.55
  C 1024.54 712.62 1005.67 736.29 979.53 750.57
  C 972.93 754.18 965.90 757.33 958.78 759.83
  Q 931.37 769.44 900.01 770.54
  Q 899.49 770.56 899.70 771.04
  C 910.64 795.91 907.95 822.89 893.61 845.84
  C 875.02 875.61 842.02 891.17 807.22 894.63
  C 788.87 896.45 770.89 895.06 752.22 891.57
  Q 718.36 885.25 686.78 870.68
  Q 686.27 870.44 686.03 870.96
  Q 681.12 881.51 670.34 882.69
  Q 661.48 883.65 654.75 877.29
  C 653.89 876.48 653.32 875.43 652.51 874.60
  Q 652.09 874.17 651.54 874.42
  Q 616.26 890.06 581.07 895.50
  Q 557.91 899.08 534.08 897.02
  Q 506.92 894.68 486.38 887.06
  Q 434.55 867.83 414.59 817.51
  Q 408.21 801.41 405.08 783.80
  Q 402.58 769.74 401.86 755.32
  Q 401.82 754.50 401.36 755.18
  C 392.54 768.24 376.14 776.47 360.72 779.37
  Q 343.41 782.63 325.98 777.89
  C 300.14 770.87 279.45 752.04 267.47 728.05
  C 254.72 702.54 251.43 673.15 254.69 644.80
  Q 259.72 601.07 278.42 560.72
  A 0.32 0.32 0.0 0 0 278.25 560.29
  C 263.89 554.52 261.87 535.66 274.41 526.75
  Q 274.82 526.46 274.62 526.00
  Q 258.81 489.78 253.55 455.88
  Q 249.04 426.89 253.24 396.48
  C 258.80 356.18 276.31 320.51 311.18 298.89
  C 316.29 295.71 321.73 293.22 327.13 290.65
  Q 330.28 289.16 333.99 287.86
  Q 342.71 284.83 346.32 283.72
  Q 366.65 277.50 395.54 275.97
  Q 396.31 275.93 395.97 275.24
  Q 394.48 272.30 393.34 268.84
  Q 387.29 250.49 390.21 232.28
  C 394.24 207.13 409.50 185.60 430.71 171.54
  C 458.11 153.38 492.77 148.69 524.75 152.25
  Q 568.09 157.07 609.24 176.01
  A 0.37 0.37 0.0 0 0 609.74 175.81
  C 614.63 163.04 630.77 159.89 640.48 168.88
  C 641.52 169.84 642.35 170.85 643.24 171.94
  Q 643.61 172.38 644.14 172.15
  Q 670.18 160.55 698.67 154.08
  Q 747.29 143.04 795.04 155.10
  C 829.97 163.93 861.53 186.06 876.79 219.42
  C 878.65 223.49 880.71 227.37 882.15 231.61
  C 883.88 236.76 885.75 241.68 887.15 246.99
  Q 892.75 268.34 893.86 291.09
  Q 893.90 291.94 894.39 291.25
  Z
  M 968.26 488.86
  C 956.50 476.37 946.94 461.26 944.32 444.55
  C 941.86 428.80 948.31 414.09 961.78 405.59
  Q 964.34 403.98 967.56 403.48
  C 998.66 398.60 1015.01 418.46 1017.28 447.17
  Q 1017.29 447.29 1017.41 447.31
  Q 1017.58 447.34 1017.61 447.17
  Q 1019.06 437.12 1020.30 426.22
  Q 1023.15 401.12 1022.39 376.36
  C 1021.75 355.53 1018.66 334.35 1008.57 316.42
  C 998.04 297.72 979.55 282.79 958.19 278.61
  Q 933.23 273.72 910.98 287.18
  C 902.00 292.61 895.66 301.25 895.01 311.78
  C 894.35 322.56 902.22 328.53 912.33 327.11
  C 925.29 325.30 931.10 312.42 932.04 300.77
  A 0.70 0.70 0.0 0 1 932.76 300.13
  L 933.05 300.14
  Q 933.98 300.16 934.01 301.09
  C 934.49 315.52 926.93 329.48 911.94 332.00
  C 903.16 333.48 894.01 329.68 890.28 321.41
  C 887.08 314.32 888.05 305.31 890.80 298.10
  Q 891.48 296.30 891.16 293.78
  Q 888.25 271.17 881.43 251.03
  C 875.81 234.43 866.91 217.83 856.17 205.58
  C 837.27 184.04 811.17 172.11 782.31 168.51
  Q 763.00 166.10 739.53 168.17
  Q 693.29 172.23 647.10 182.99
  Q 646.52 183.12 646.48 183.72
  Q 646.10 190.30 641.79 195.33
  Q 641.43 195.75 641.81 196.14
  Q 658.30 213.30 675.93 225.48
  Q 684.68 231.53 693.72 235.46
  C 708.13 241.74 725.72 244.62 736.49 230.95
  C 743.25 222.38 743.35 208.77 733.65 202.31
  Q 729.97 199.85 726.37 198.85
  Q 717.08 196.27 705.90 196.34
  Q 695.58 196.40 685.92 197.41
  Q 682.98 197.72 685.78 196.76
  C 698.79 192.28 713.56 189.35 727.17 191.42
  C 736.32 192.81 744.96 197.73 748.77 206.15
  C 758.47 227.61 741.68 250.58 719.46 251.93
  C 686.73 253.92 656.18 224.11 638.64 198.96
  Q 638.33 198.50 637.85 198.79
  Q 631.70 202.57 625.26 201.63
  Q 610.34 199.45 608.37 183.35
  Q 608.30 182.75 607.70 182.74
  Q 598.24 182.55 586.91 183.23
  Q 572.33 184.10 560.63 187.85
  C 548.71 191.66 539.34 199.23 537.79 212.21
  Q 537.17 217.37 537.74 222.77
  Q 537.99 225.09 539.22 226.91
  C 556.94 253.04 591.60 235.46 611.89 224.78
  Q 613.32 224.03 612.15 225.14
  C 599.26 237.41 582.19 247.85 564.62 249.41
  C 550.39 250.68 536.72 243.96 529.06 231.67
  Q 527.25 228.76 526.73 224.84
  Q 525.94 218.82 526.12 214.95
  C 527.21 190.59 545.63 178.43 568.20 176.27
  Q 571.98 175.91 568.22 175.37
  C 544.21 171.93 519.86 170.00 495.88 171.12
  C 472.58 172.21 450.00 176.58 431.50 190.14
  C 400.99 212.51 390.43 253.18 412.40 285.02
  C 418.47 293.82 429.49 300.06 440.34 297.92
  C 449.86 296.05 452.60 285.21 449.43 276.99
  C 445.53 266.86 434.55 261.64 424.00 261.45
  A 0.24 0.24 0.0 0 1 423.76 261.21
  L 423.76 259.49
  Q 423.76 259.27 423.99 259.26
  C 437.24 258.99 450.36 264.73 454.53 277.77
  Q 457.37 286.63 453.54 294.53
  C 446.81 308.42 427.91 306.62 416.90 300.30
  C 408.69 295.58 402.74 288.13 397.85 279.24
  Q 397.54 278.68 396.89 278.75
  Q 374.11 281.50 352.04 288.96
  C 347.48 290.51 343.19 292.47 338.80 294.36
  C 332.46 297.09 326.20 300.74 320.27 304.57
  C 291.56 323.12 275.45 352.78 270.99 386.93
  Q 268.46 406.38 270.47 429.01
  Q 274.91 478.81 285.38 522.83
  Q 285.53 523.45 286.17 523.49
  Q 292.72 523.90 297.72 528.18
  Q 298.21 528.59 298.67 528.14
  Q 318.65 508.68 331.06 489.14
  C 341.28 473.06 352.41 443.99 330.11 431.36
  Q 324.37 428.11 317.34 428.85
  C 306.39 430.01 301.72 439.08 300.03 448.86
  C 298.01 460.59 298.81 472.67 299.76 484.68
  Q 299.87 486.09 299.39 484.76
  C 294.27 470.67 290.67 451.83 295.10 437.33
  C 301.67 415.81 327.61 413.23 342.71 426.77
  Q 351.37 434.53 353.74 445.96
  C 355.62 455.03 353.59 466.62 350.12 475.12
  Q 344.08 489.91 333.28 502.51
  Q 319.11 519.04 301.36 531.27
  A 0.67 0.66 -34.1 0 0 301.18 532.17
  C 305.11 538.38 305.27 546.38 301.37 552.53
  Q 296.10 560.83 285.91 561.56
  Q 285.38 561.59 285.36 562.12
  Q 284.48 580.16 287.31 597.42
  C 289.66 611.69 295.80 628.51 311.95 631.72
  Q 318.19 632.96 325.07 632.23
  Q 327.58 631.97 329.66 630.51
  C 354.78 612.91 338.48 579.62 327.66 559.02
  Q 326.04 555.94 328.35 558.55
  C 335.94 567.14 342.45 576.27 347.02 586.75
  C 350.86 595.58 353.10 606.30 351.32 615.66
  Q 348.89 628.49 338.96 637.32
  Q 334.23 641.53 330.16 642.58
  Q 325.68 643.73 319.14 643.80
  C 301.24 644.00 288.45 634.36 282.34 617.73
  Q 279.30 609.45 278.48 599.97
  Q 278.37 598.64 278.15 599.96
  Q 272.64 634.42 273.26 666.87
  C 273.89 699.57 280.16 730.89 305.38 752.15
  C 322.03 766.19 343.67 772.61 365.19 767.52
  C 382.01 763.55 399.43 753.26 400.77 734.52
  C 401.49 724.36 393.41 718.00 383.78 719.40
  C 370.81 721.28 364.39 733.58 363.75 746.00
  Q 363.74 746.23 363.51 746.23
  L 362.00 746.24
  Q 361.79 746.24 361.78 746.04
  C 361.00 731.47 368.57 717.31 383.66 714.58
  C 391.24 713.20 399.45 715.95 403.88 722.41
  C 408.89 729.73 408.08 740.76 404.85 748.58
  Q 404.21 750.12 404.47 752.01
  C 408.26 779.96 415.22 805.51 429.74 827.82
  Q 452.17 862.31 492.26 873.76
  C 512.38 879.50 533.39 880.38 554.54 878.57
  Q 602.40 874.46 648.70 863.55
  Q 649.20 863.43 649.23 862.92
  Q 649.57 856.46 653.93 851.17
  Q 654.30 850.72 653.90 850.31
  Q 637.40 833.31 620.00 821.23
  C 607.41 812.49 591.17 804.51 576.01 806.16
  C 563.63 807.51 553.45 818.37 554.57 831.18
  C 555.50 841.80 563.71 846.82 573.48 848.71
  C 584.91 850.93 596.86 850.30 608.75 849.32
  Q 612.45 849.01 608.93 850.19
  Q 596.37 854.40 583.91 855.53
  C 570.58 856.73 556.18 854.81 548.55 843.20
  C 542.86 834.54 542.95 822.03 547.84 812.99
  Q 555.56 798.75 572.06 795.18
  Q 579.41 793.60 589.66 795.63
  C 603.94 798.47 616.96 806.10 627.80 815.30
  Q 644.65 829.61 657.08 847.65
  Q 657.37 848.08 657.83 847.82
  Q 666.63 842.70 674.93 846.01
  Q 686.40 850.58 687.31 863.14
  Q 687.35 863.64 687.85 863.66
  Q 708.36 864.39 724.60 861.44
  C 739.67 858.70 755.94 851.81 757.94 834.49
  Q 758.52 829.47 758.02 824.19
  Q 757.74 821.18 755.78 818.56
  C 745.33 804.55 729.72 804.10 714.30 808.58
  C 703.64 811.68 693.71 816.70 683.71 821.72
  Q 682.88 822.13 683.55 821.49
  C 705.07 800.79 744.15 782.29 766.44 814.44
  Q 768.00 816.69 768.48 819.20
  Q 770.10 827.55 769.35 835.06
  C 767.87 849.88 758.40 861.08 744.59 866.29
  Q 734.67 870.03 725.31 870.45
  Q 725.26 870.45 725.24 870.50
  Q 725.22 870.55 725.22 870.60
  Q 725.23 870.76 725.39 870.79
  Q 751.93 875.04 778.63 875.72
  Q 796.45 876.18 813.30 874.37
  C 840.45 871.47 864.31 861.80 880.61 840.19
  C 897.31 818.07 899.95 790.01 886.03 765.65
  C 879.95 755.00 869.53 747.25 857.18 748.33
  Q 851.61 748.82 848.28 752.98
  C 842.64 760.03 844.73 770.28 850.69 776.57
  C 856.02 782.19 863.79 784.75 871.52 785.24
  Q 872.00 785.27 872.00 785.75
  L 871.99 786.76
  Q 871.98 787.24 871.51 787.25
  C 857.20 787.69 843.52 780.62 840.45 766.02
  C 838.70 757.69 841.90 748.54 849.55 744.29
  Q 855.62 740.92 863.79 741.66
  C 879.78 743.10 890.36 753.48 897.86 767.34
  Q 898.20 767.96 898.89 767.87
  C 926.42 764.17 951.19 757.31 973.60 743.23
  C 1005.76 723.03 1022.37 690.23 1025.48 652.93
  Q 1026.70 638.31 1025.83 625.56
  Q 1022.36 574.88 1010.29 523.55
  Q 1010.17 523.05 1009.66 523.03
  Q 1002.74 522.71 997.94 518.32
  Q 997.53 517.95 997.14 518.33
  Q 978.23 536.88 966.18 555.03
  C 957.48 568.15 947.16 590.66 956.01 605.85
  C 961.28 614.91 971.55 619.98 981.72 617.07
  C 991.12 614.38 994.63 605.10 995.98 596.11
  C 997.67 584.87 996.95 573.34 995.98 562.12
  Q 995.80 560.09 996.48 562.01
  Q 1000.86 574.31 1002.28 588.25
  C 1003.92 604.44 1000.07 623.08 981.63 627.31
  C 971.46 629.64 960.54 626.81 952.93 619.73
  Q 939.99 607.69 941.44 589.72
  C 942.86 572.08 951.84 556.25 963.39 543.01
  Q 977.24 527.13 994.36 515.31
  Q 994.86 514.96 994.55 514.44
  Q 989.85 506.45 992.32 498.69
  Q 996.22 486.39 1009.89 484.94
  Q 1010.39 484.88 1010.41 484.38
  C 1011.01 469.13 1010.23 453.36 1005.92 438.59
  C 1002.05 425.35 993.86 415.23 979.33 414.23
  Q 975.44 413.97 971.20 414.30
  Q 968.30 414.53 966.29 415.91
  C 943.98 431.21 954.01 459.81 963.71 479.01
  Q 966.24 484.01 968.55 488.66
  Q 969.07 489.71 968.26 488.86
  Z"
/>
<path fill="#d5b983" d="
  M 639.28 463.22
  Q 638.71 464.82 638.40 466.54
  Q 638.32 467.02 637.99 467.39
  Q 637.25 468.24 637.37 469.35
  Q 637.42 469.83 637.08 470.17
  L 636.87 470.38
  A 0.90 0.88 -13.4 0 0 636.70 470.65
  L 625.97 501.09
  Q 625.90 501.31 625.75 501.50
  Q 625.65 501.63 625.61 501.77
  Q 622.26 511.91 618.91 520.69
  Q 618.02 523.03 617.16 525.55
  Q 610.98 543.57 604.78 560.64
  A 1.60 1.60 0.0 0 1 602.84 561.63
  L 597.79 560.20
  Q 597.26 560.05 597.25 559.51
  Q 597.19 557.64 597.88 555.86
  Q 600.08 550.26 602.19 544.35
  Q 618.16 499.52 634.15 455.31
  Q 634.48 454.40 634.64 453.47
  Q 634.72 452.99 635.03 452.61
  C 635.87 451.57 635.34 450.91 635.77 449.96
  Q 635.84 449.82 635.95 449.72
  Q 636.22 449.50 636.34 449.16
  Q 642.67 431.35 649.10 413.57
  Q 649.55 412.34 649.64 411.67
  Q 649.70 411.19 649.94 410.76
  Q 651.24 408.49 651.73 405.93
  A 1.64 1.64 0.0 0 1 653.33 404.61
  L 657.49 404.59
  A 1.66 1.66 0.0 0 1 659.04 405.65
  L 754.31 656.17
  Q 754.48 656.61 754.95 656.61
  L 785.64 656.61
  Q 786.78 656.61 786.78 657.75
  L 786.78 663.25
  A 1.14 1.14 0.0 0 1 785.64 664.39
  L 676.74 664.39
  Q 674.59 664.39 674.59 662.24
  L 674.59 658.75
  Q 674.59 656.60 676.75 656.60
  L 712.24 656.61
  Q 713.09 656.61 712.50 656.01
  L 712.21 655.71
  Q 711.84 655.33 711.73 654.82
  Q 711.17 652.37 709.90 650.19
  Q 709.66 649.77 709.59 649.28
  Q 709.49 648.50 709.19 647.75
  Q 706.27 640.34 703.46 633.01
  Q 701.71 628.42 700.14 624.18
  Q 698.56 619.91 696.90 616.09
  Q 696.65 615.51 696.48 614.88
  Q 696.32 614.24 696.07 613.61
  Q 693.72 607.69 691.61 601.96
  Q 690.07 597.78 688.39 593.67
  Q 687.04 590.39 685.78 586.81
  Q 684.53 583.28 683.07 579.99
  Q 682.97 579.76 682.73 579.84
  L 682.48 579.92
  A 0.02 0.02 0.0 0 0 682.47 579.95
  Q 683.16 581.27 682.40 582.04
  Q 682.05 582.40 681.55 582.39
  C 679.08 582.35 677.06 583.49 674.56 583.48
  Q 672.57 583.47 670.58 583.90
  Q 668.81 584.29 667.02 584.36
  Q 649.21 585.10 639.86 584.09
  Q 636.49 583.73 632.97 583.49
  Q 630.97 583.35 628.82 582.95
  Q 626.76 582.56 624.55 582.47
  C 621.57 582.35 618.97 581.29 615.90 581.36
  C 615.07 581.38 614.35 580.97 613.48 580.83
  Q 597.62 578.34 582.52 572.92
  Q 564.08 566.29 549.41 553.84
  Q 542.09 547.63 535.97 539.86
  Q 524.29 525.01 517.66 507.24
  Q 514.98 500.07 513.03 492.80
  A 6.68 4.75 64.5 0 1 512.84 491.90
  Q 512.12 487.81 511.14 483.63
  Q 510.63 481.49 510.50 479.43
  C 510.38 477.41 509.76 475.50 509.64 473.51
  Q 508.77 460.10 509.64 447.66
  C 509.80 445.38 510.53 443.34 510.56 441.03
  C 510.58 438.78 511.59 437.05 511.59 434.79
  Q 511.60 433.30 512.17 431.81
  C 512.70 430.43 512.27 428.56 513.00 427.44
  Q 513.28 427.01 512.99 426.58
  Q 503.36 412.10 504.73 393.90
  Q 504.82 392.72 505.14 391.51
  Q 505.46 390.34 505.63 389.15
  Q 506.16 385.41 507.63 381.71
  Q 516.07 360.48 536.79 352.68
  Q 545.32 349.47 556.02 349.53
  C 558.79 349.55 561.52 350.38 564.21 350.78
  C 577.89 352.85 590.42 363.40 597.16 375.27
  Q 602.42 384.54 602.85 395.66
  Q 602.91 397.04 603.32 398.27
  C 603.76 399.60 602.83 400.51 602.81 401.82
  C 602.65 418.68 592.26 433.86 577.90 442.05
  Q 574.79 443.82 570.68 445.34
  Q 567.08 446.68 563.02 447.28
  Q 560.74 447.62 558.31 448.01
  Q 556.69 448.28 555.15 448.36
  C 553.73 448.44 552.41 448.50 550.98 448.19
  Q 548.51 447.66 546.14 447.55
  Q 543.69 447.43 541.48 446.71
  Q 537.99 445.58 534.51 444.34
  C 533.51 443.98 532.81 443.42 531.81 443.11
  Q 531.16 442.92 530.97 443.56
  C 530.38 445.60 530.66 447.62 530.05 449.57
  C 529.33 451.84 529.49 453.98 529.12 456.32
  Q 528.51 460.24 528.34 464.32
  Q 527.25 490.33 537.24 512.98
  Q 546.51 534.00 563.31 548.33
  Q 570.42 554.41 579.94 559.34
  Q 593.33 566.28 606.75 570.03
  Q 613.38 571.88 623.81 574.34
  C 625.36 574.70 626.78 574.49 628.22 575.32
  A 1.99 1.92 57.1 0 0 629.28 575.57
  Q 631.54 575.45 633.66 576.39
  A 2.29 2.21 -34.3 0 0 634.78 576.58
  C 636.57 576.44 637.99 577.20 639.76 577.44
  Q 648.63 578.66 655.94 579.38
  Q 662.28 580.01 682.31 579.32
  Q 682.89 579.30 682.64 578.77
  L 680.77 574.76
  Q 680.58 574.34 680.70 573.90
  C 681.07 572.55 679.99 571.65 679.64 570.40
  Q 679.05 568.27 678.22 566.26
  Q 677.48 564.49 676.87 562.73
  Q 676.25 560.94 675.56 559.22
  Q 674.09 555.54 672.89 552.01
  C 672.20 550.01 671.21 548.14 670.64 546.18
  Q 670.28 544.97 669.81 543.81
  Q 668.24 539.95 666.89 536.01
  C 666.20 534.01 665.22 532.15 664.64 530.20
  Q 664.28 528.97 663.81 527.81
  Q 662.24 523.95 660.89 520.01
  C 660.20 518.02 659.22 516.15 658.65 514.22
  Q 658.29 512.97 657.81 511.81
  Q 656.24 507.95 654.89 504.01
  C 654.20 502.01 653.21 500.14 652.64 498.18
  Q 652.28 496.96 651.81 495.79
  Q 649.95 491.17 648.27 486.54
  Q 647.38 484.09 646.50 481.73
  Q 643.89 474.69 641.12 467.58
  Q 640.21 465.22 639.77 463.25
  Q 639.58 462.38 639.28 463.22
  Z"
/>
<path fill="#d5b983" d="
  M 571.25 630.11
  Q 579.70 606.75 588.21 583.41
  Q 588.60 582.35 588.86 581.65
  Q 589.08 581.07 589.66 581.29
  L 596.20 583.78
  Q 596.80 584.00 596.45 584.54
  Q 596.12 585.06 595.89 585.70
  Q 587.08 610.05 578.62 633.40
  C 578.32 634.25 578.51 635.19 578.16 636.06
  C 576.92 639.08 576.24 642.34 575.57 645.47
  C 574.42 650.85 579.65 655.00 584.43 655.52
  Q 585.51 655.63 586.48 655.98
  C 588.30 656.64 590.41 656.67 592.29 656.63
  Q 593.67 656.60 595.37 656.91
  Q 599.50 657.65 603.73 656.98
  Q 607.44 656.40 611.72 656.64
  Q 612.79 656.70 612.79 657.77
  L 612.78 663.44
  A 0.95 0.95 0.0 0 1 611.83 664.39
  L 532.00 664.39
  Q 531.62 664.39 531.62 664.01
  L 531.61 656.91
  A 0.32 0.32 0.0 0 1 531.93 656.59
  Q 539.56 656.69 547.99 656.49
  Q 549.73 656.44 555.22 655.14
  Q 558.30 654.40 561.39 651.11
  Q 564.39 647.90 566.94 641.48
  Q 569.17 635.86 571.25 630.11
  Z"
/>
</svg>
